<svg width="56" height="57" viewBox="0 0 56 57" fill="none" xmlns="http://www.w3.org/2000/svg">
<path d="M8.95116 25.86C21.8752 20.0057 38.5999 12.868 40.9085 11.8801C46.9644 9.29439 48.8225 9.78993 47.896 15.5162C47.2307 19.6319 45.3108 33.2582 43.7806 41.7396C42.8726 46.7691 40.8355 47.3652 37.6323 45.1893C36.0918 44.1421 28.3166 38.8479 26.6292 37.6048C25.0887 36.4718 22.9642 35.1091 25.6286 32.4249C26.5767 31.4688 32.7919 25.3581 37.6343 20.6018C38.2688 19.9771 37.4719 18.9511 36.7397 19.4519C30.2129 23.9086 21.1636 30.0944 20.0119 30.9002C18.2719 32.1168 16.6009 32.6748 13.6013 31.7875C11.3348 31.1172 9.12084 30.3178 8.2591 30.0128C4.94068 28.8396 5.72838 27.3202 8.95116 25.86Z" fill="white"/>
</svg>
