<svg width="304" height="136" viewBox="0 0 304 136" fill="none" xmlns="http://www.w3.org/2000/svg">
<mask id="path-1-outside-1_130_27082" maskUnits="userSpaceOnUse" x="0.875" y="0.631836" width="303" height="136" fill="black">
<rect fill="white" x="0.875" y="0.631836" width="303" height="136"/>
<path d="M92.8904 55.0483C93.0553 54.3889 93.0553 53.7294 93.2202 52.9051C91.9012 52.7402 90.912 52.5753 89.9228 52.7402C86.7904 52.9051 83.8228 53.2348 80.6904 53.3997C78.712 53.3997 77.393 54.224 76.5687 56.2024C70.7984 70.3809 61.8957 82.416 52.0037 94.1215C51.0145 95.4404 49.6956 96.5945 48.7064 97.9134C48.0469 98.7378 47.5523 99.727 47.0577 100.551C48.0469 102.035 49.201 101.705 50.3551 101.705C52.9929 101.54 55.6308 101.211 58.2686 101.046C61.4011 100.881 64.5335 101.376 67.3362 103.024C69.4795 104.178 71.1281 105.992 71.7876 108.465C72.6119 111.432 71.9525 114.07 69.8092 116.214C67.666 118.357 65.0281 119.511 62.0605 119.676C60.0821 119.676 58.1037 119.676 56.1254 119.346C45.9037 117.203 35.8469 118.027 25.6252 119.346C21.3387 119.841 17.217 120.005 12.9305 120.17C11.117 120.17 9.13862 119.676 7.48997 119.016C3.69806 117.697 1.71966 114.565 1.88453 110.608C2.21426 103.189 6.8305 96.7594 15.4035 96.9242C17.5468 96.9242 19.8549 97.0891 21.8333 97.4188C26.2847 97.9134 30.2414 96.9242 33.8685 94.4512C39.9685 90.3296 44.9145 85.0539 49.5307 79.4485C54.9713 73.0187 59.9173 65.9295 63.5443 58.1808C64.0389 57.1916 64.3686 56.0375 64.8632 54.5537C63.5443 54.5537 62.72 54.224 61.8957 54.3889C59.7524 54.7186 57.774 55.2132 55.7956 55.7078C51.674 56.8619 47.5523 58.1808 43.2658 59.17C40.7928 59.6646 38.155 59.9943 35.5171 59.8294C33.5388 59.6646 31.3955 59.0051 29.7468 58.0159C23.8117 54.3889 23.9765 46.6402 29.7468 43.0131C32.7144 41.3645 35.8469 40.5401 39.1442 41.1996C44.5848 42.3537 49.8605 44.0023 55.1362 45.1564C58.2686 45.9807 61.5659 46.4753 64.8632 46.9699C67.5011 47.2996 68.1606 46.6402 68.6552 44.1672C70.4687 36.9131 72.2822 29.4941 73.9309 22.0752C74.4255 19.4373 74.4255 16.6346 74.7552 13.8319C75.0849 11.6886 75.2498 9.54539 75.9092 7.40213C77.0633 3.93996 80.5255 1.63184 83.8228 1.63184C87.285 1.63184 90.2526 3.93996 91.7364 7.40213C92.5607 9.54539 92.8904 11.6886 92.231 13.9968C91.5715 16.14 90.7472 18.4481 89.9228 20.5914C86.9553 28.1752 83.9877 35.759 81.185 43.178C80.8552 43.8375 80.6904 44.6618 80.5255 45.3213C80.0309 47.1348 80.3606 47.6294 82.339 47.7942C85.4715 48.124 88.6039 48.2888 91.7364 48.4537C95.1985 48.6186 95.1985 48.6186 96.3526 45.3213C98.331 40.2104 99.3202 34.7699 100.145 29.3293C100.804 24.0536 102.453 19.2725 105.42 14.8211C106.409 13.3373 107.728 12.0184 109.047 10.6994C112.18 7.89673 116.796 7.40213 120.093 9.54539C123.391 11.5238 125.039 15.6454 124.05 19.9319C123.555 21.5806 123.061 23.2292 122.237 24.713C120.258 27.5158 118.28 30.4833 116.136 33.2861C114.818 34.9347 113.169 36.4185 111.685 37.9023C108.553 41.3645 106.08 45.3213 104.596 49.6078C102.618 55.3781 100.804 61.1484 98.9905 66.9187C97.8364 70.8755 98.0013 74.9971 98.6607 79.1187C98.8256 81.262 98.8256 83.4052 98.4959 85.5485C98.331 87.0323 97.5067 88.5161 96.6823 89.6701C94.7039 92.308 91.2418 93.2972 88.439 92.4729C85.1417 91.4837 83.3282 89.1755 82.8336 85.8782C82.6687 84.3944 82.8336 82.7458 83.1633 81.262C83.4931 79.7782 84.1525 78.2944 84.812 76.9755C88.7688 70.0511 90.7472 62.4673 92.8904 55.0483ZM146.69 44.8267C148.009 46.9699 148.174 49.7726 146.36 51.9159C146.03 52.2456 145.371 52.9051 144.382 53.7294C143.887 54.224 134.16 61.3132 123.938 66.4241C116.849 70.216 109.43 73.0187 105.144 74.6674C105.144 77.1403 105.474 79.6133 106.298 82.2512C106.463 82.9106 106.792 83.5701 107.122 84.2296C108.441 86.208 110.749 86.7026 112.892 85.7134C114.706 84.889 115.86 83.4052 116.684 81.7566C117.674 79.9431 118.498 77.9647 119.487 75.9863C120.476 73.6782 121.96 71.5349 124.103 70.0511C128.39 67.2484 133.666 68.7322 135.644 73.1836C136.468 74.9971 136.468 76.9755 135.479 78.789C134.655 80.6025 133.666 82.416 132.347 83.8998C129.544 86.8674 126.576 89.835 123.444 92.4729C121.795 93.9567 119.982 95.1107 118.003 96.0999C112.398 98.5729 106.463 97.254 102.671 92.4729C101.682 91.3188 100.857 89.9999 100.033 88.5161C98.2194 84.7242 97.0654 79.2836 97.0654 74.0079C97.2302 68.5673 98.8789 62.3024 102.176 56.5321C104.649 52.4105 108.276 49.6078 112.398 48.124C115.036 47.2996 124.268 46.805 131.357 45.4861C134.82 44.6618 136.139 43.3429 139.271 42.3537C142.074 41.5293 145.041 42.6834 146.69 44.8267ZM118.828 63.7862C127.401 59.3348 133.501 52.7402 123.444 52.7402C117.014 52.7402 111.738 55.5429 108.441 61.9727C107.287 64.116 106.463 66.2592 105.968 68.5673C109.43 67.5781 114.541 65.9295 118.828 63.7862ZM165.931 80.9323C159.831 89.3404 142.355 91.1539 136.42 91.4837C133.452 91.6485 131.474 90.4945 131.639 87.362C131.639 85.5485 132.133 83.5701 132.793 81.9215C135.431 74.5025 144.169 56.697 151.587 40.5401C155.709 31.6374 158.512 21.9103 166.425 12.8427C170.052 8.5562 177.307 9.54539 179.12 14.3265C182.582 23.0644 166.096 30.1536 158.017 45.8159C153.401 54.7186 149.444 63.9511 147.631 67.5781C137.739 86.7026 152.082 72.5241 153.071 71.5349C160.985 64.2808 170.712 74.1728 165.931 80.9323ZM184.841 51.2564C185.005 52.4105 185.005 53.5645 185.17 55.0483C186.16 54.7186 186.984 54.7186 187.478 54.224C189.292 53.2348 190.941 52.0808 192.589 50.9267C195.392 49.1132 198.524 47.7942 201.822 47.2996C208.252 46.4753 213.362 48.7834 216.33 54.224C217.154 55.5429 217.649 56.8619 218.143 58.3457C220.616 67.2484 220.452 76.1511 216 84.7242C211.879 92.4729 205.449 97.4188 196.546 99.2324C192.589 99.8918 188.633 99.5621 185.005 98.2432C182.368 97.0891 180.059 95.6053 178.411 93.1323C176.762 90.4945 176.432 87.6918 177.916 84.889C179.565 82.0863 182.203 80.9323 185.335 81.0971C187.149 81.0971 188.797 81.4268 190.611 81.7566C199.679 83.735 204.789 79.6133 207.757 72.5241C209.076 69.5565 209.57 66.4241 209.241 63.2916C209.241 62.4673 209.076 61.4781 208.911 60.6538C207.757 56.3673 205.284 54.7186 200.833 55.5429C196.711 56.3673 192.754 58.0159 189.622 60.6538C186.489 63.1268 183.522 65.9295 180.884 68.8971C178.246 71.8646 176.103 75.3268 173.63 78.789C171.816 81.4269 170.992 84.3944 170.332 87.5269C168.354 98.0783 166.376 108.63 164.232 119.181C163.738 121.489 163.243 123.797 162.419 126.105C161.759 127.754 160.935 129.403 159.946 130.887C158.627 133.03 156.484 134.349 154.011 134.843C150.713 135.338 147.251 133.689 145.603 130.722C144.284 128.414 143.954 125.941 144.284 123.468C144.613 120.83 145.108 118.357 145.767 115.719C148.076 108.3 151.208 101.211 155.165 94.4512C156.319 92.6377 157.473 90.6593 158.627 88.8458C163.243 81.7566 166.211 74.0079 168.189 65.9295C168.684 63.6214 168.849 60.9835 169.178 58.5105C169.343 56.5321 169.508 54.3889 170.003 52.4105C170.497 50.2672 171.651 48.4537 173.3 47.1348C177.751 43.6726 183.851 45.8159 184.841 51.2564ZM266.097 44.8267C267.416 46.9699 267.581 49.7726 265.767 51.9159C265.437 52.2456 264.778 52.9051 263.789 53.7294C263.294 54.224 253.567 61.3132 243.345 66.4241C236.256 70.216 228.837 73.0187 224.551 74.6674C224.551 77.1403 224.88 79.6133 225.705 82.2512C225.869 82.9106 226.199 83.5701 226.529 84.2296C227.848 86.208 230.156 86.7026 232.299 85.7134C234.113 84.889 235.267 83.4052 236.091 81.7566C237.08 79.9431 237.905 77.9647 238.894 75.9863C239.883 73.6782 241.367 71.5349 243.51 70.0511C247.797 67.2484 253.072 68.7322 255.051 73.1836C255.875 74.9971 255.875 76.9755 254.886 78.789C254.062 80.6025 253.072 82.416 251.753 83.8998C248.951 86.8674 245.983 89.835 242.851 92.4729C241.202 93.9567 239.388 95.1107 237.41 96.0999C231.805 98.5729 225.869 97.254 222.078 92.4729C221.088 91.3188 220.264 89.9999 219.44 88.5161C217.626 84.7242 216.472 79.2836 216.472 74.0079C216.637 68.5673 218.286 62.3024 221.583 56.5321C224.056 52.4105 227.683 49.6078 231.805 48.124C234.442 47.2996 243.675 46.805 250.764 45.4861C254.226 44.6618 255.545 43.3429 258.678 42.3537C261.48 41.5293 264.448 42.6834 266.097 44.8267ZM238.234 63.7862C246.807 59.3348 252.907 52.7402 242.851 52.7402C236.421 52.7402 231.145 55.5429 227.848 61.9727C226.694 64.116 225.869 66.2592 225.375 68.5673C228.837 67.5781 233.948 65.9295 238.234 63.7862ZM294.309 47.1348C303.871 44.1672 303.871 51.9159 300.079 57.1916C297.606 60.6538 292.825 62.4673 290.846 61.1484C288.868 59.4997 286.395 58.6754 283.922 59.3348C271.557 62.3024 270.238 74.5025 270.733 79.2836C270.898 81.0971 271.062 82.9106 270.898 84.7242C270.733 87.0323 270.238 89.1755 268.919 91.1539C265.457 95.935 258.862 95.4404 256.06 90.3296C255.071 88.3512 254.906 86.208 255.071 84.0647C255.4 81.0971 256.554 78.4593 258.368 75.9863C260.346 73.1836 261.665 70.0511 262.984 66.7538C264.303 63.6214 264.798 60.4889 264.468 57.0267C264.138 55.0483 264.138 53.0699 263.973 51.0916C263.973 48.4537 264.303 45.8159 265.787 43.3429C266.446 42.0239 267.435 40.705 268.754 39.7158C273.535 36.0888 279.965 38.5618 280.954 44.4969C281.284 46.1456 280.954 47.9591 280.954 49.6078C280.79 50.597 280.13 51.751 280.954 52.9051C282.768 53.07 283.922 52.0808 285.241 51.4213C288.209 49.9375 291.011 48.124 294.309 47.1348Z"/>
</mask>
<path d="M92.8904 55.0483C93.0553 54.3889 93.0553 53.7294 93.2202 52.9051C91.9012 52.7402 90.912 52.5753 89.9228 52.7402C86.7904 52.9051 83.8228 53.2348 80.6904 53.3997C78.712 53.3997 77.393 54.224 76.5687 56.2024C70.7984 70.3809 61.8957 82.416 52.0037 94.1215C51.0145 95.4404 49.6956 96.5945 48.7064 97.9134C48.0469 98.7378 47.5523 99.727 47.0577 100.551C48.0469 102.035 49.201 101.705 50.3551 101.705C52.9929 101.54 55.6308 101.211 58.2686 101.046C61.4011 100.881 64.5335 101.376 67.3362 103.024C69.4795 104.178 71.1281 105.992 71.7876 108.465C72.6119 111.432 71.9525 114.07 69.8092 116.214C67.666 118.357 65.0281 119.511 62.0605 119.676C60.0821 119.676 58.1037 119.676 56.1254 119.346C45.9037 117.203 35.8469 118.027 25.6252 119.346C21.3387 119.841 17.217 120.005 12.9305 120.17C11.117 120.17 9.13862 119.676 7.48997 119.016C3.69806 117.697 1.71966 114.565 1.88453 110.608C2.21426 103.189 6.8305 96.7594 15.4035 96.9242C17.5468 96.9242 19.8549 97.0891 21.8333 97.4188C26.2847 97.9134 30.2414 96.9242 33.8685 94.4512C39.9685 90.3296 44.9145 85.0539 49.5307 79.4485C54.9713 73.0187 59.9173 65.9295 63.5443 58.1808C64.0389 57.1916 64.3686 56.0375 64.8632 54.5537C63.5443 54.5537 62.72 54.224 61.8957 54.3889C59.7524 54.7186 57.774 55.2132 55.7956 55.7078C51.674 56.8619 47.5523 58.1808 43.2658 59.17C40.7928 59.6646 38.155 59.9943 35.5171 59.8294C33.5388 59.6646 31.3955 59.0051 29.7468 58.0159C23.8117 54.3889 23.9765 46.6402 29.7468 43.0131C32.7144 41.3645 35.8469 40.5401 39.1442 41.1996C44.5848 42.3537 49.8605 44.0023 55.1362 45.1564C58.2686 45.9807 61.5659 46.4753 64.8632 46.9699C67.5011 47.2996 68.1606 46.6402 68.6552 44.1672C70.4687 36.9131 72.2822 29.4941 73.9309 22.0752C74.4255 19.4373 74.4255 16.6346 74.7552 13.8319C75.0849 11.6886 75.2498 9.54539 75.9092 7.40213C77.0633 3.93996 80.5255 1.63184 83.8228 1.63184C87.285 1.63184 90.2526 3.93996 91.7364 7.40213C92.5607 9.54539 92.8904 11.6886 92.231 13.9968C91.5715 16.14 90.7472 18.4481 89.9228 20.5914C86.9553 28.1752 83.9877 35.759 81.185 43.178C80.8552 43.8375 80.6904 44.6618 80.5255 45.3213C80.0309 47.1348 80.3606 47.6294 82.339 47.7942C85.4715 48.124 88.6039 48.2888 91.7364 48.4537C95.1985 48.6186 95.1985 48.6186 96.3526 45.3213C98.331 40.2104 99.3202 34.7699 100.145 29.3293C100.804 24.0536 102.453 19.2725 105.42 14.8211C106.409 13.3373 107.728 12.0184 109.047 10.6994C112.18 7.89673 116.796 7.40213 120.093 9.54539C123.391 11.5238 125.039 15.6454 124.05 19.9319C123.555 21.5806 123.061 23.2292 122.237 24.713C120.258 27.5158 118.28 30.4833 116.136 33.2861C114.818 34.9347 113.169 36.4185 111.685 37.9023C108.553 41.3645 106.08 45.3213 104.596 49.6078C102.618 55.3781 100.804 61.1484 98.9905 66.9187C97.8364 70.8755 98.0013 74.9971 98.6607 79.1187C98.8256 81.262 98.8256 83.4052 98.4959 85.5485C98.331 87.0323 97.5067 88.5161 96.6823 89.6701C94.7039 92.308 91.2418 93.2972 88.439 92.4729C85.1417 91.4837 83.3282 89.1755 82.8336 85.8782C82.6687 84.3944 82.8336 82.7458 83.1633 81.262C83.4931 79.7782 84.1525 78.2944 84.812 76.9755C88.7688 70.0511 90.7472 62.4673 92.8904 55.0483ZM146.69 44.8267C148.009 46.9699 148.174 49.7726 146.36 51.9159C146.03 52.2456 145.371 52.9051 144.382 53.7294C143.887 54.224 134.16 61.3132 123.938 66.4241C116.849 70.216 109.43 73.0187 105.144 74.6674C105.144 77.1403 105.474 79.6133 106.298 82.2512C106.463 82.9106 106.792 83.5701 107.122 84.2296C108.441 86.208 110.749 86.7026 112.892 85.7134C114.706 84.889 115.86 83.4052 116.684 81.7566C117.674 79.9431 118.498 77.9647 119.487 75.9863C120.476 73.6782 121.96 71.5349 124.103 70.0511C128.39 67.2484 133.666 68.7322 135.644 73.1836C136.468 74.9971 136.468 76.9755 135.479 78.789C134.655 80.6025 133.666 82.416 132.347 83.8998C129.544 86.8674 126.576 89.835 123.444 92.4729C121.795 93.9567 119.982 95.1107 118.003 96.0999C112.398 98.5729 106.463 97.254 102.671 92.4729C101.682 91.3188 100.857 89.9999 100.033 88.5161C98.2194 84.7242 97.0654 79.2836 97.0654 74.0079C97.2302 68.5673 98.8789 62.3024 102.176 56.5321C104.649 52.4105 108.276 49.6078 112.398 48.124C115.036 47.2996 124.268 46.805 131.357 45.4861C134.82 44.6618 136.139 43.3429 139.271 42.3537C142.074 41.5293 145.041 42.6834 146.69 44.8267ZM118.828 63.7862C127.401 59.3348 133.501 52.7402 123.444 52.7402C117.014 52.7402 111.738 55.5429 108.441 61.9727C107.287 64.116 106.463 66.2592 105.968 68.5673C109.43 67.5781 114.541 65.9295 118.828 63.7862ZM165.931 80.9323C159.831 89.3404 142.355 91.1539 136.42 91.4837C133.452 91.6485 131.474 90.4945 131.639 87.362C131.639 85.5485 132.133 83.5701 132.793 81.9215C135.431 74.5025 144.169 56.697 151.587 40.5401C155.709 31.6374 158.512 21.9103 166.425 12.8427C170.052 8.5562 177.307 9.54539 179.12 14.3265C182.582 23.0644 166.096 30.1536 158.017 45.8159C153.401 54.7186 149.444 63.9511 147.631 67.5781C137.739 86.7026 152.082 72.5241 153.071 71.5349C160.985 64.2808 170.712 74.1728 165.931 80.9323ZM184.841 51.2564C185.005 52.4105 185.005 53.5645 185.17 55.0483C186.16 54.7186 186.984 54.7186 187.478 54.224C189.292 53.2348 190.941 52.0808 192.589 50.9267C195.392 49.1132 198.524 47.7942 201.822 47.2996C208.252 46.4753 213.362 48.7834 216.33 54.224C217.154 55.5429 217.649 56.8619 218.143 58.3457C220.616 67.2484 220.452 76.1511 216 84.7242C211.879 92.4729 205.449 97.4188 196.546 99.2324C192.589 99.8918 188.633 99.5621 185.005 98.2432C182.368 97.0891 180.059 95.6053 178.411 93.1323C176.762 90.4945 176.432 87.6918 177.916 84.889C179.565 82.0863 182.203 80.9323 185.335 81.0971C187.149 81.0971 188.797 81.4268 190.611 81.7566C199.679 83.735 204.789 79.6133 207.757 72.5241C209.076 69.5565 209.57 66.4241 209.241 63.2916C209.241 62.4673 209.076 61.4781 208.911 60.6538C207.757 56.3673 205.284 54.7186 200.833 55.5429C196.711 56.3673 192.754 58.0159 189.622 60.6538C186.489 63.1268 183.522 65.9295 180.884 68.8971C178.246 71.8646 176.103 75.3268 173.63 78.789C171.816 81.4269 170.992 84.3944 170.332 87.5269C168.354 98.0783 166.376 108.63 164.232 119.181C163.738 121.489 163.243 123.797 162.419 126.105C161.759 127.754 160.935 129.403 159.946 130.887C158.627 133.03 156.484 134.349 154.011 134.843C150.713 135.338 147.251 133.689 145.603 130.722C144.284 128.414 143.954 125.941 144.284 123.468C144.613 120.83 145.108 118.357 145.767 115.719C148.076 108.3 151.208 101.211 155.165 94.4512C156.319 92.6377 157.473 90.6593 158.627 88.8458C163.243 81.7566 166.211 74.0079 168.189 65.9295C168.684 63.6214 168.849 60.9835 169.178 58.5105C169.343 56.5321 169.508 54.3889 170.003 52.4105C170.497 50.2672 171.651 48.4537 173.3 47.1348C177.751 43.6726 183.851 45.8159 184.841 51.2564ZM266.097 44.8267C267.416 46.9699 267.581 49.7726 265.767 51.9159C265.437 52.2456 264.778 52.9051 263.789 53.7294C263.294 54.224 253.567 61.3132 243.345 66.4241C236.256 70.216 228.837 73.0187 224.551 74.6674C224.551 77.1403 224.88 79.6133 225.705 82.2512C225.869 82.9106 226.199 83.5701 226.529 84.2296C227.848 86.208 230.156 86.7026 232.299 85.7134C234.113 84.889 235.267 83.4052 236.091 81.7566C237.08 79.9431 237.905 77.9647 238.894 75.9863C239.883 73.6782 241.367 71.5349 243.51 70.0511C247.797 67.2484 253.072 68.7322 255.051 73.1836C255.875 74.9971 255.875 76.9755 254.886 78.789C254.062 80.6025 253.072 82.416 251.753 83.8998C248.951 86.8674 245.983 89.835 242.851 92.4729C241.202 93.9567 239.388 95.1107 237.41 96.0999C231.805 98.5729 225.869 97.254 222.078 92.4729C221.088 91.3188 220.264 89.9999 219.44 88.5161C217.626 84.7242 216.472 79.2836 216.472 74.0079C216.637 68.5673 218.286 62.3024 221.583 56.5321C224.056 52.4105 227.683 49.6078 231.805 48.124C234.442 47.2996 243.675 46.805 250.764 45.4861C254.226 44.6618 255.545 43.3429 258.678 42.3537C261.48 41.5293 264.448 42.6834 266.097 44.8267ZM238.234 63.7862C246.807 59.3348 252.907 52.7402 242.851 52.7402C236.421 52.7402 231.145 55.5429 227.848 61.9727C226.694 64.116 225.869 66.2592 225.375 68.5673C228.837 67.5781 233.948 65.9295 238.234 63.7862ZM294.309 47.1348C303.871 44.1672 303.871 51.9159 300.079 57.1916C297.606 60.6538 292.825 62.4673 290.846 61.1484C288.868 59.4997 286.395 58.6754 283.922 59.3348C271.557 62.3024 270.238 74.5025 270.733 79.2836C270.898 81.0971 271.062 82.9106 270.898 84.7242C270.733 87.0323 270.238 89.1755 268.919 91.1539C265.457 95.935 258.862 95.4404 256.06 90.3296C255.071 88.3512 254.906 86.208 255.071 84.0647C255.4 81.0971 256.554 78.4593 258.368 75.9863C260.346 73.1836 261.665 70.0511 262.984 66.7538C264.303 63.6214 264.798 60.4889 264.468 57.0267C264.138 55.0483 264.138 53.0699 263.973 51.0916C263.973 48.4537 264.303 45.8159 265.787 43.3429C266.446 42.0239 267.435 40.705 268.754 39.7158C273.535 36.0888 279.965 38.5618 280.954 44.4969C281.284 46.1456 280.954 47.9591 280.954 49.6078C280.79 50.597 280.13 51.751 280.954 52.9051C282.768 53.07 283.922 52.0808 285.241 51.4213C288.209 49.9375 291.011 48.124 294.309 47.1348Z" stroke="white" stroke-width="2" mask="url(#path-1-outside-1_130_27082)"/>
</svg>
