<svg width="85" height="32" viewBox="0 0 85 32" fill="none" xmlns="http://www.w3.org/2000/svg">
<path fill-rule="evenodd" clip-rule="evenodd" d="M2.31618 1.90889C0.410156 3.81779 0.410156 6.89007 0.410156 13.0347V18.2302C0.410156 24.3749 0.410156 27.4472 2.31618 29.3561C4.22221 31.2649 7.28992 31.2649 13.4253 31.2649H71.9839C78.1193 31.2649 81.1869 31.2649 83.0932 29.3561C84.9991 27.4472 84.9991 24.3749 84.9991 18.2302V13.0347C84.9991 6.89011 84.9991 3.81779 83.0932 1.90889C81.1869 0 78.1193 0 71.9839 0H13.4253C7.28992 0 4.22221 0 2.31618 1.90889ZM41.4429 4.0433V24.704H39.542V4.0433H41.4429ZM6.78214 24.704H8.73992V15.3257H20.2027V24.704H22.1605V4.69693H20.2027V13.4785H8.73992V4.69693H6.78214V24.704ZM26.6343 18.0539H37.3877V17.0308C37.3877 14.8899 36.8202 13.2037 35.6853 11.9722C34.5694 10.7218 33.0846 10.0966 31.2308 10.0966C29.3014 10.0966 27.722 10.7692 26.4925 12.1143C25.263 13.4595 24.6482 15.2688 24.6482 17.5424C24.6482 19.8349 25.2724 21.6537 26.5208 22.9989C27.7882 24.3251 29.4149 24.9882 31.401 24.9882C33.0278 24.9882 34.3328 24.5903 35.3167 23.7946C36.3189 22.9799 36.9432 22.061 37.1892 21.0379H35.2882C35.0801 21.6253 34.6356 22.1463 33.9545 22.601C33.2925 23.0367 32.4413 23.2546 31.401 23.2546C30.0013 23.2546 28.8569 22.781 27.9679 21.8337C27.0789 20.8864 26.6343 19.6549 26.6343 18.1392V18.0539ZM27.9963 13.0806C28.8285 12.228 29.8973 11.8017 31.2024 11.8017C32.4887 11.8017 33.51 12.2091 34.2666 13.0237C35.0423 13.8384 35.449 14.9752 35.4868 16.434H26.6343C26.7289 15.032 27.1829 13.9142 27.9963 13.0806ZM55.7616 12.0859C54.5133 10.7597 53.0001 10.0966 51.2219 10.0966C50.0492 10.0966 49.0372 10.3523 48.186 10.8639C47.3348 11.3565 46.6918 12.0006 46.2567 12.7964V10.3808H44.4407V30.132H46.3416V22.4873C46.758 23.2262 47.382 23.8325 48.2144 24.3061C49.0466 24.7608 50.0301 24.9882 51.1651 24.9882C52.9811 24.9882 54.5133 24.3346 55.7616 23.0273C57.0101 21.701 57.6344 19.8727 57.6344 17.5424C57.6344 15.212 57.0101 13.3932 55.7616 12.0859ZM54.3997 21.6916C53.5485 22.7336 52.423 23.2546 51.0233 23.2546C49.6047 23.2546 48.4507 22.7431 47.5618 21.72C46.6918 20.6779 46.2567 19.3328 46.2567 17.6845V17.4003C46.2567 15.7141 46.6918 14.3689 47.5618 13.3648C48.4507 12.3417 49.6047 11.8301 51.0233 11.8301C52.423 11.8301 53.5485 12.3606 54.3997 13.4216C55.27 14.4636 55.7051 15.8372 55.7051 17.5424C55.7051 19.2475 55.27 20.6306 54.3997 21.6916ZM71.674 18.0539H60.9206V18.1392C60.9206 19.6549 61.365 20.8864 62.254 21.8337C63.143 22.781 64.2876 23.2546 65.6872 23.2546C66.7275 23.2546 67.5787 23.0367 68.2408 22.601C68.9219 22.1463 69.3663 21.6253 69.5742 21.0379H71.4754C71.2295 22.061 70.6052 22.9799 69.6026 23.7946C68.6191 24.5903 67.314 24.9882 65.6872 24.9882C63.7011 24.9882 62.0742 24.3251 60.8069 22.9989C59.5587 21.6537 58.9344 19.8349 58.9344 17.5424C58.9344 15.2688 59.549 13.4595 60.7785 12.1143C62.008 10.7692 63.5875 10.0966 65.5171 10.0966C67.3709 10.0966 68.8557 10.7218 69.9716 11.9722C71.1065 13.2037 71.674 14.8899 71.674 17.0308V18.0539ZM65.4887 11.8017C64.1833 11.8017 63.1146 12.228 62.2824 13.0806C61.469 13.9142 61.0151 15.032 60.9206 16.434H69.7731C69.7353 14.9752 69.3286 13.8384 68.5529 13.0237C67.7963 12.2091 66.775 11.8017 65.4887 11.8017ZM80.9497 10.3239H80.2689C78.1502 10.3239 76.6088 11.1386 75.644 12.768V10.3808H73.828V24.704H75.7292V16.7182C75.7292 15.2404 76.1547 14.1037 77.0059 13.3079C77.8571 12.5122 78.9449 12.1143 80.2689 12.1143H80.9497V10.3239Z" fill="black"/>
</svg>
