<svg width="14" height="13" viewBox="0 0 14 13" fill="none" xmlns="http://www.w3.org/2000/svg">
<path d="M6.76589 0.720504C6.83958 0.49372 7.16042 0.493721 7.23411 0.720505L8.51633 4.66679C8.54929 4.76821 8.6438 4.83688 8.75044 4.83688H12.8998C13.1383 4.83688 13.2374 5.14202 13.0445 5.28218L9.68758 7.72112C9.60131 7.7838 9.56521 7.89491 9.59816 7.99633L10.8804 11.9426C10.9541 12.1694 10.6945 12.358 10.5016 12.2178L7.14469 9.77888C7.05841 9.7162 6.94159 9.7162 6.85531 9.77888L3.4984 12.2178C3.30549 12.358 3.04592 12.1694 3.11961 11.9426L4.40184 7.99633C4.43479 7.89491 4.39869 7.7838 4.31242 7.72112L0.955502 5.28218C0.762588 5.14202 0.861733 4.83688 1.10019 4.83688H5.24956C5.3562 4.83688 5.45071 4.76821 5.48367 4.66679L6.76589 0.720504Z" fill="black"/>
</svg>
