<svg width="83" height="42" viewBox="0 0 83 42" fill="none" xmlns="http://www.w3.org/2000/svg">
<g opacity="0.2">
<path opacity="0.7" d="M11.1145 19.7659L13.6099 27.4458H21.685L15.1521 32.1923L17.6475 39.8722L11.1145 35.1257L4.58157 39.8722L7.07693 32.1923L0.543983 27.4458H8.61915L11.1145 19.7659Z" fill="black"/>
<path d="M63.7261 0.5L68.0514 13.8119H82.0483L70.7246 22.0391L75.0499 35.351L63.7261 27.1238L52.4023 35.351L56.7276 22.0391L45.4038 13.8119H59.4008L63.7261 0.5Z" fill="black"/>
<path opacity="0.8" d="M35.5718 13.8379L38.5662 23.0538H48.2564L40.4169 28.7496L43.4113 37.9655L35.5718 32.2697L27.7323 37.9655L30.7267 28.7496L22.8872 23.0538H32.5774L35.5718 13.8379Z" fill="black"/>
</g>
</svg>
